<svg id="Capa_1" data-name="Capa 1" xmlns="http://www.w3.org/2000/svg" viewBox="0 0 2000 2000"><defs><style>.cls-1{fill:#fff;}</style></defs><path class="cls-1" d="M544.6036,923.56728q-10.57671,65.41894-74.42873,77.56257-113.21,30.555-188.81393,14.88575Q170.893,986.24411,166.584,887.13638q-4.70076-93.61568,8.61807-227.20349H290.76246q-7.05114,92.06442,5.09249,167.6605,8.61024,48.97411,36.03918,52.49184,25.85418,10.19283,49.74973-2.35038,27.41328-10.57671,33.68879-62.67682,10.96061-110.4679-16.06094-483.395l128.09577-23.50381Q568.883,728.4935,544.6036,923.56728Z"/><path class="cls-1" d="M787.08457,1016.79906q-85.7889,1.55908-113.60175-34.47225-19.97823-24.679-47.39935-175.88684-34.47225-197.81591-34.47225-307.50818-1.56692-118.69423,37.99783-142.9815,71.287-47.78325,221.71926-57.97607,133.18043,0,158.65072,92.44832,13.311,57.58432,13.31882,155.12514,0,242.08925-77.17084,410.14147-19.20261,32.90533-60.32644,47.79108Q858.77119,1011.31484,787.08457,1016.79906ZM844.6689,863.63257q16.45267-8.61022,24.28727-27.81284,30.555-98.716,30.55495-240.91405,0-56.40913-5.09249-90.48967-9.01763-46.608-63.06855-54.05876-70.12754-6.65157-103.80849,28.20457-22.32863,21.94473,7.44287,247.18173Q752.61231,836.611,760.44692,851.0972q10.96061,20.76954,45.4407,20.37Q834.09218,867.9416,844.6689,863.63257Z"/><path class="cls-1" d="M1205.84411,726.91874q-241.70535-90.48966-125.74538-354.12406,14.8779-34.85615,60.32644-47.79108,43.86594-12.92709,119.086-12.92709,101.842,4.31687,121.82808,34.08052,42.30685,66.602,39.95647,133.38673-2.35038,66.79-27.02938,116.14538L1284.9736,581.58686q34.864-57.96823,9.40152-103.8085-10.96843-21.15342-53.667-20.76169-47.00761,0-59.15125,8.22633-21.94473,9.40152-24.28727,27.42111-11.368,72.08619,61.50163,98.716,200.558,92.06442,204.09141,206.44179,1.55909,136.72165-34.08052,160.60937-64.25158,47.79108-180.97933,58.36779-119.86943,0-142.98151-92.44832-12.14364-57.96822-1.95865-166.877l101.84984-4.70077q1.17519,34.4801,4.309,57.58434,7.05114,54.05876,55.62568,61.50163,64.24375-.77562,75.99565-53.667Q1312.39471,777.8515,1205.84411,726.91874Z"/><path class="cls-1" d="M1485.14771,987.02757,1465.95293,337.539l366.26247,14.88574-8.61806,122.61154L1602.66675,486.0047v75.60392l161.38761,10.185V696.36379l-161.38761,5.09249V838.56184h219.76062l-3.53079,124.96192Zm76.77911-759.173,176.27335-106.15887L1780.904,251.35833l-189.20567,70.51143Z"/><path class="cls-1" d="M350.46214,1576.05392v247.18173L225.892,1812.65894,202.77987,1115.771q371.74409-34.08053,377.62787,90.48967,3.90947,178.62894-23.89554,256.58325-14.89357,59.9347-70.1197,71.68662l-8.22633,1.95865L601.9529,1756.24979l-80.30468,79.913Zm.78346-329.83679V1435.4228q107.32623-8.61024,112.42655-104.98369,7.05114-56.793-19.97824-68.161Q414.69805,1245.82539,351.2456,1246.21713Z"/><path class="cls-1" d="M1068.66021,1691.61432q-4.31688,99.11556-119.4777,128.87922-68.95234,14.48618-194.29816-16.45267-62.2851-14.494-75.21219-104.98368-20.37-166.877,12.14364-568.00872l135.93036,10.185q-30.94668,362.75-19.58651,477.12733,6.25985,51.70838,32.90533,62.67682,26.23809,10.57672,49.74973,3.52558,36.03135-7.82677,43.87378-52.49185,20.75387-128.47965-19.97824-452.0566l133.58-18.01958Q1079.22909,1462.46,1068.66021,1691.61432Z"/><path class="cls-1" d="M1146.37947,1252.48481l-13.31883-175.49511,135.53864,5.48423-10.57672,175.10338Zm12.53536,577.802-23.89554-517.0838,135.53864-15.66921v501.4146Z"/><path class="cls-1" d="M1532.78209,1650.09092l274.20589-17.62785-5.48422,171.96953H1361.20429l-11.36018-147.29054,295.36454-390.94669-287.52994,30.94668-5.87595-181.76279h452.05138l-.78346,144.94016Z"/></svg>