<svg id="Capa_1" data-name="Capa 1" xmlns="http://www.w3.org/2000/svg" viewBox="0 0 1192.75223 1575.50389"><defs><style>.cls-1{fill:#fff;}</style></defs><path class="cls-1" d="M739.77225,382.65745c0,61.9552-48.37616,55.16706-95.05322,60.25885-11.03452,1.69635-11.03452,1.69635-11.03452,12.73086-1.69634,36.49348-4.24086,72.136-5.09179,108.63226C625.2,684.7916,631.14,805.30655,600.58648,923.27422c-5.09179,22.06627-16.12354,44.13254-35.6453,56.01247-30.55352,17.82265-88.26233,16.97448-112.02771-11.03175-3.39268-3.39545-6.78813-5.0918-9.33541-8.48725-33.9462-33.949-40.7371-85.71781-39.88616-132.39487.84817-23.76538-.85094-54.31613,10.18358-76.3824,2.54452-5.09179,8.48724-9.33541,14.42721-11.88269,50.0725-22.06627,55.1643,73.83789,57.71157,101.84412.84817,10.18359,1.69635,20.36717,5.94,30.55075,8.48724,17.82266,27.15806,24.61355,32.24985,2.54728,3.39545-13.579,2.54728-28.00623,4.24362-41.58527l7.63907-80.626c5.09179-51.76885,10.18358-105.2368,14.4272-156.15748l7.63907-90.81237c.84817-11.87993,11.03176-58.55975-6.79089-61.10426-21.21534-2.54728-42.43344-5.94-63.65154-9.33542-13.579-1.69634-25.459-6.79089-33.098-19.519-9.33541-14.43-5.09179-39.88893,12.73086-47.528,22.91444-9.33541,45.82889-9.33541,70.43967-10.18358h97.60051c27.15806,0,63.65154-6.7909,89.96143,1.69634a18.4442,18.4442,0,0,1,12.73086,11.03452c2.54451,3.39269,1.69634,7.63631,1.69634,11.87993Z" transform="translate(-403.62389 -212.24805)"/><path class="cls-1" d="M1006.26939,714.497a684.24613,684.24613,0,0,1-.85093,72.13878,619.70833,619.70833,0,0,1-34.79437,151.06569c-4.24362,11.88269-8.48724,22.91445-16.12631,33.098-13.579,17.82265-33.098,22.91444-54.31613,24.61355-20.36717,1.69634-39.88893,2.54451-59.40792-.84817a118.56174,118.56174,0,0,1-24.61079-7.63907C765.2395,961.464,755.05592,898.66067,747.41685,847.74c-8.48724-60.25609-9.33542-121.36312-5.94-182.46738,3.39545-61.107,6.78814-122.21129,19.519-181.61921,6.7909-33.949,16.97448-71.29061,42.4362-96.75233,29.70258-28.85441,80.62326-33.9462,117.96767-17.82265,30.55351,12.73086,61.10426,44.13254,65.34788,78.0815,3.39545,27.15807,4.24362,55.1643,5.94,82.32237,4.24362,56.01247,9.33817,111.17677,12.73086,166.34383C1005.41846,702.61426,1006.26939,708.55422,1006.26939,714.497ZM913.76068,518.44777a382.25718,382.25718,0,0,0-7.63907-44.98072c-2.54451-9.33541-5.09179-27.15806-12.7281-33.94619C878.11538,426.79,870.47907,480.258,868.78,489.59336c-2.54451,16.97448-5.94,72.13878-8.48724,134.094-2.54451,70.43968-5.09179,148.51842-3.39545,185.86283.85094,27.15806.85094,55.1643.85094,82.32236a23.51534,23.51534,0,0,0,.84817,7.63907c.84817,2.54452,2.54451,5.09179,5.09179,5.09179,14.42721,3.39269,26.30989-47.528,28.00624-56.8634a1031.31148,1031.31148,0,0,0,18.67082-151.91387c1.69911-17.82265,2.54728-35.6453,3.39545-53.46795C914.60885,601.62107,917.15613,559.18487,913.76068,518.44777Z" transform="translate(-403.62389 -212.24805)"/><path class="cls-1" d="M1307.56919,818.88558c3.39268,37.34165-2.54728,78.07875-18.67083,112.87588-11.88545,25.459-33.10355,49.22434-60.26161,57.70881-46.6743,13.5818-107.78133-12.72809-138.33208-49.22157-28.009-33.949-44.98348-91.66054-19.52175-132.39764,12.73086-20.36716,46.67982-2.54451,61.107,8.48724,14.42721,11.88269,22.91445,28.85717,36.49071,41.58527,6.7909,5.94273,18.67083,2.54728,23.76538-4.24362,3.39269-5.09179,5.089-11.87992,5.94-17.81989,6.79089-35.6453,1.69634-72.13878-11.03452-106.08774-12.73086-32.24986-32.24709-59.40792-54.31613-87.41415-20.36717-25.46173-35.6453-56.01524-46.6743-86.566-13.58179-35.6453-24.61631-73.83789-20.37269-112.0277,4.24362-33.098,22.91445-72.13879,57.71434-82.32237,38.19258-11.88269,86.56322,4.24362,117.96491,26.30989,17.82541,13.579,36.49624,34.79437,37.34164,58.557.85094,18.67359-18.67082,39.04075-39.038,33.10079-20.36716-5.94273-32.24709-24.61355-52.61978-30.55351-5.089-1.69635-10.18358-2.54728-14.4272-.84817-5.089,2.54451-8.48725,8.48724-8.48725,14.4272-.8454,5.94,1.69635,11.88269,3.39822,16.97448,15.27261,39.88892,38.18705,77.23057,56.85788,115.42039l38.19258,83.1733c17.82541,40.7371,35.6453,81.47419,42.4362,124.7558Z" transform="translate(-403.62389 -212.24805)"/><path class="cls-1" d="M1510.4065,446.309c-17.82542,0-74.68882-7.63631-77.23058,9.33817-3.39821,27.15807,5.94,56.01248,9.33265,82.32237.85094,14.4272-2.54727,103.54046,8.48724,106.93315,10.18359,1.69911,20.36717,2.54728,29.70535,5.09455,39.88892,11.03176,37.34164,66.19606,6.79089,85.71505-10.18358,5.94273-25.46172-3.39268-34.79989,2.54728-8.48724,6.78814-4.24362,28.85441-4.24362,38.18982,0,11.88269-1.69635,22.91444-3.39269,34.79713-2.54728,14.42721-5.09455,30.55352-6.7909,45.82889-1.69634,8.48724-11.87992,37.34441,2.54728,33.949,22.06351-3.39545,44.97795.84817,67.8924,4.24362,21.2181,3.39269,43.28713,1.69635,64.50524,8.48724,17.81989,5.0918,24.61078,16.97172,22.91444,35.64255-.85093,15.27813-4.24362,30.55351-18.67082,39.88892-21.21811,13.579-48.37617,11.03452-72.987,11.88269-22.069.84817-44.13254,1.69634-66.20158,1.69634-17.81989,1.69911-37.34164,4.24362-52.61978-7.6363-8.48724-5.94273-16.12355-13.579-19.51623-25.46173-16.12908-49.22433-.85094-110.32859,2.54727-162.10021,3.39269-48.3734-1.70187-96.74957-2.54727-145.9739-1.69635-49.22434,1.69634-98.44868,1.69634-147.673.85093-39.038.85093-77.23058,2.54728-116.26857,0-36.49347,61.95243-30.55351,85.71781-29.70534,17.81989.84817,35.6453,3.39545,53.46519,4.24362,25.46172,0,53.4652-6.79089,67.047,17.82266,4.24362,6.78813,4.24362,9.33541,4.24362,12.73086,1.69634,3.39268,0,14.4272-.85093,17.82265-9.33265,29.70258-38.18706,32.24985-67.047,34.79437A8.54831,8.54831,0,0,1,1510.4065,446.309Z" transform="translate(-403.62389 -212.24805)"/><path class="cls-1" d="M703.28154,1778.22c-11.88269,8.48725-33.949,7.63631-47.528,5.94-6.78813-1.69635-12.72809-3.39269-17.82265-6.78537-7.6363-5.09456-11.87992-13.5818-14.4272-22.069-13.579-49.22157-14.4272-100.145-31.40169-149.36659-4.24362-11.03452-9.33541-25.46172-19.519-32.25262-8.48724-5.94-25.46172-4.24362-26.30989,4.24362-3.39545,20.36717,2.54727,45.82889,4.24362,67.047.84817,25.46172,1.69634,50.07251,0,75.53423-.84817,11.029-1.69635,22.91444-6.78814,33.098-6.7909,14.4272-21.2181,24.61078-37.34441,28.00347-10.18358,1.70187-34.79437,4.24362-42.43344-5.94-11.88269-16.97448-16.12631-28.00348-16.12631-50.07251,1.69911-78.92692,1.69911-157.00842.85094-235.93534-.85094-53.46519-2.54728-106.93591-5.94273-160.40111-1.69634-25.46172-2.54451-50.0725-3.39545-75.53422,0-25.46173.85094-51.76886.85094-77.23058.84817-5.089.84817-11.03451,3.39268-16.12631,5.09456-9.33541,18.67359-11.03175,29.70534-11.03175,36.49348.84817,95.05323,7.6363,127.30309,25.46172,45.82888,24.61079,67.89516,70.43967,75.53422,120.51218,5.0918,33.949,11.03176,67.89793,13.579,101.84689,1.69634,17.81989,2.54451,36.49071,0,54.31613-3.39545,22.91444-12.73086,43.28161-32.24986,56.85788-7.63907,5.94-11.88269,5.09455-11.03452,14.4272,1.69911,13.58179,13.579,28.009,19.52176,39.88892,14.4272,31.40169,27.15807,64.49972,36.49348,98.44868,5.94,22.069,10.18358,44.98348,13.579,67.89792a104.91741,104.91741,0,0,1,1.69634,15.27261C718.55691,1757.00192,716.0124,1768.03644,703.28154,1778.22ZM587.85838,1396.31078c8.48724-39.88892,4.24362-82.32512-7.6363-121.36311-1.69911-6.7909-4.24362-14.42721-9.33541-19.52176-4.24362-5.94-28.009-10.18359-35.64531-10.18359-22.91444,0-9.33541,50.07251-7.63907,63.65431l5.09179,82.3196c.84818,14.4272.84818,29.70534.84818,44.13254,0,12.73086-5.0918,28.009,15.27813,20.36717,22.91445-8.48171,27.15807-17.81989,30.55075-28.00347A132.053,132.053,0,0,0,587.85838,1396.31078Z" transform="translate(-403.62389 -212.24805)"/><path class="cls-1" d="M1041.91746,1650.066c-2.54728,37.34717-3.39269,83.17606-33.098,111.17953-34.79713,34.7999-102.69229,30.55628-145.12573,14.42721-42.4362-16.97448-66.19882-54.31613-74.68606-98.44868-13.579-67.04146-2.54451-135.79032-1.69634-203.68271,1.69634-89.96144-5.09179-180.7738-2.54728-270.72971.84817-15.27814,2.54728-39.89169,16.97448-48.37893,11.03176-6.7909,31.40168-1.69634,41.58527,5.09179,22.91444,15.27814,26.30989,48.37617,27.15806,72.98695l2.54728,40.73986c4.24362,59.40516,5.09179,119.66678,6.78813,179.92287,1.69911,58.55975,7.63907,117.1195,7.63907,175.67924.84817,22.91445-.84817,50.07251,14.42721,68.74334,11.03175,13.57627,35.6453,21.2181,44.13254.84541,2.54452-4.24363,2.54452-8.48725,3.39545-13.57627,14.4272-149.37212-5.94273-299.58964-6.7909-449.80717,0-16.97448,0-33.949,7.63907-49.22157,19.519-38.19535,60.25609-20.37269,72.98695,11.87992,6.7909,16.12355,8.48724,33.949,9.33818,51.76885,4.24362,92.50872,11.029,185.01743,12.73086,277.52061C1045.31567,1567.74641,1044.46473,1608.48074,1041.91746,1650.066Z" transform="translate(-403.62389 -212.24805)"/><path class="cls-1" d="M1176.02249,1782.46364c-32.25262,10.18359-41.58527-50.0725-45.82889-70.43967-3.39821-15.27814-2.54728-31.40168-2.54728-46.67982,0-64.49971-4.24362-128.99943-5.94-193.49914-.85094-26.31265-2.54728-52.61978-2.54728-78.92691-.85093-28.85994-.85093-56.86341-.85093-84.87241v-83.17053c0-16.12355-1.69635-33.098,5.09455-49.22158a60.23463,60.23463,0,0,1,11.03452-18.67635c11.029-12.72809,25.46172-11.03175,39.88892-6.78813,37.34165,10.18358,32.2471,61.9552,33.94344,92.50595,1.70187,38.19258,0,78.0815,1.70187,116.27409,2.54175,40.73433,5.94,82.3196,5.94,123.05946,2.54728,54.31612,0,106.085,0,160.4011C1215.91141,1686.56225,1231.184,1763.79282,1176.02249,1782.46364Z" transform="translate(-403.62389 -212.24805)"/><path class="cls-1" d="M1572.36446,1233.3624c-17.81989,48.37616-36.49072,95.90139-55.16707,143.42663-11.87992,28.009-24.61078,56.01247-36.49071,84.8724-16.12355,37.34165-28.009,76.37964-44.13254,114.57222-10.18359,22.91444-21.2181,45.82889-30.55075,69.58874-3.39822,7.64183-23.76538,47.53076-5.94,45.83441,22.06351-1.70187,44.978-4.24362,67.8924-6.79089,17.82542-1.69635,33.098-5.09456,50.07251,2.54727,1.69634.84541,3.39268,1.69635,4.24362,3.39269,1.69634.85093,2.54728,2.54728,3.39268,4.24362a131.39053,131.39053,0,0,1,3.39822,17.81989c2.54727,14.4272,4.24362,22.069-7.64184,32.25262a114.43661,114.43661,0,0,1-28.00347,16.12354c-20.36717,8.48724-41.58527,11.88546-63.6543,14.42721-33.94344,4.24362-72.136,11.88545-106.93039,11.03452-25.46172,0-47.53076-26.30713-49.2271-50.92345-1.69634-21.21257,8.48724-44.127,15.27814-64.49971,6.7909-22.06351,16.12355-44.13254,25.46172-65.34512,19.51623-43.28714,41.58527-85.71781,62.80337-129.00495,36.49071-72.136,74.68329-145.9739,96.7468-224.04988,1.69635-5.94549-.84541-7.64184-5.94-7.64184-43.28161-.8454-83.17053-4.24362-123.91039-22.06351-18.67083-8.48724-31.40169-19.52175-25.4562-40.73985,8.48172-36.49348,54.31613-32.24986,83.17054-31.40169,28.00347.84817,56.01247.84817,83.17053,1.69911,17.81989.84817,39.038-.85094,56.86341,3.39268C1581.70263,1164.61907,1584.24438,1200.26437,1572.36446,1233.3624Z" transform="translate(-403.62389 -212.24805)"/><path class="cls-1" d="M1421.08243,290.99856c-4.82087-22.37806,27.107-25.844,40.3326-33.68221l32.96793-19.53848c18.14556-11.18143,39.00558-22.99557,65.00337-25.257a28.54588,28.54588,0,0,1,13.506,1.34368,14.94047,14.94047,0,0,1,9.809,9.326c2.68088,6.753,1.35888,15.59234-.70715,20.63187-4.28019,10.77694-14.14048,18.93777-24.83739,26.1964-18.07286,10.831-37.83993,25.57-60.27483,28.923S1425.90329,313.37662,1421.08243,290.99856Z" transform="translate(-403.62389 -212.24805)"/></svg>